# xmcd CD database file
#
# Track frame offsets:
#	150
#	11984
#	37708
#	57162
#	74232
#	99409
#	122675
#	144721
#	161260
#	173895
#	194549
#	209197
#
# Disc length: 2968 seconds
#
# Revision: 0
# Processed by: cddbd v1.5.2PL0 Copyright (c) Steve Scherf et al.
# Submitted via: CDex 1.51
#
DISCID=b30b960c
DTITLE=Tom&Huck - 站火車
DYEAR=1900
DGENRE=Country
TTITLE0=潮
TTITLE1=站火車
TTITLE2=賺吃查某人
TTITLE3=Hey朋友
TTITLE4=Bali Sunshine
TTITLE5=無所謂
TTITLE6=愛的邊緣
TTITLE7=罰三杯
TTITLE8=I don't wanna be your friend
TTITLE9=留點愛給自己
TTITLE10=明天要繼續
TTITLE11=歸
EXTD=
EXTT0=
EXTT1=
EXTT2=
EXTT3=
EXTT4=
EXTT5=
EXTT6=
EXTT7=
EXTT8=
EXTT9=
EXTT10=
EXTT11=
PLAYORDER=
